<mxfile host="app.diagrams.net" modified="2020-08-19T06:40:10.642Z" agent="5.0 (Macintosh; Intel Mac OS X 10_15_3) AppleWebKit/537.36 (KHTML, like Gecko) Chrome/84.0.4147.125 Safari/537.36" etag="T6VvZmpfJK7H4ljdKvoT" version="13.6.3" type="github">
  <diagram id="nQur8RngmUSOESzQFlPp" name="Page-1">
    <mxGraphModel dx="1186" dy="796" grid="0" gridSize="10" guides="1" tooltips="1" connect="1" arrows="1" fold="1" page="1" pageScale="1" pageWidth="850" pageHeight="1100" background="#FFF2CC" math="0" shadow="0">
      <root>
        <mxCell id="0" />
        <mxCell id="1" parent="0" />
        <mxCell id="8bmbix7VtnqFgUIKCFhv-3" value="VPC" style="points=[[0,0],[0.25,0],[0.5,0],[0.75,0],[1,0],[1,0.25],[1,0.5],[1,0.75],[1,1],[0.75,1],[0.5,1],[0.25,1],[0,1],[0,0.75],[0,0.5],[0,0.25]];outlineConnect=0;gradientColor=none;html=1;whiteSpace=wrap;fontSize=12;fontStyle=0;shape=mxgraph.aws4.group;grIcon=mxgraph.aws4.group_vpc;strokeColor=#248814;fillColor=none;verticalAlign=top;align=left;spacingLeft=30;fontColor=#AAB7B8;dashed=0;" vertex="1" parent="1">
          <mxGeometry x="139" y="98" width="674" height="490" as="geometry" />
        </mxCell>
        <mxCell id="8bmbix7VtnqFgUIKCFhv-2" value="AWS Fargate" style="outlineConnect=0;fontColor=#232F3E;gradientColor=none;strokeColor=#ffffff;fillColor=#232F3E;dashed=0;verticalLabelPosition=middle;verticalAlign=bottom;align=center;html=1;whiteSpace=wrap;fontSize=10;fontStyle=1;spacing=3;shape=mxgraph.aws4.productIcon;prIcon=mxgraph.aws4.fargate;" vertex="1" parent="1">
          <mxGeometry x="336" y="220" width="119" height="138" as="geometry" />
        </mxCell>
        <mxCell id="8bmbix7VtnqFgUIKCFhv-4" value="Amazon RDS" style="outlineConnect=0;fontColor=#232F3E;gradientColor=none;strokeColor=#ffffff;fillColor=#232F3E;dashed=0;verticalLabelPosition=middle;verticalAlign=bottom;align=center;html=1;whiteSpace=wrap;fontSize=10;fontStyle=1;spacing=3;shape=mxgraph.aws4.productIcon;prIcon=mxgraph.aws4.rds;" vertex="1" parent="1">
          <mxGeometry x="590" y="220" width="70" height="90" as="geometry" />
        </mxCell>
        <mxCell id="8bmbix7VtnqFgUIKCFhv-5" value="Amazon DynamoDB" style="outlineConnect=0;fontColor=#232F3E;gradientColor=none;strokeColor=#ffffff;fillColor=#232F3E;dashed=0;verticalLabelPosition=middle;verticalAlign=bottom;align=center;html=1;whiteSpace=wrap;fontSize=10;fontStyle=1;spacing=3;shape=mxgraph.aws4.productIcon;prIcon=mxgraph.aws4.dynamodb;" vertex="1" parent="1">
          <mxGeometry x="585" y="325" width="70" height="100" as="geometry" />
        </mxCell>
        <mxCell id="8bmbix7VtnqFgUIKCFhv-6" value="Amazon SQS" style="outlineConnect=0;fontColor=#232F3E;gradientColor=none;strokeColor=#ffffff;fillColor=#232F3E;dashed=0;verticalLabelPosition=middle;verticalAlign=bottom;align=center;html=1;whiteSpace=wrap;fontSize=10;fontStyle=1;spacing=3;shape=mxgraph.aws4.productIcon;prIcon=mxgraph.aws4.sqs;" vertex="1" parent="1">
          <mxGeometry x="187" y="347" width="60" height="90" as="geometry" />
        </mxCell>
        <mxCell id="8bmbix7VtnqFgUIKCFhv-68" style="edgeStyle=orthogonalEdgeStyle;rounded=0;orthogonalLoop=1;jettySize=auto;html=1;exitX=1;exitY=0.5;exitDx=0;exitDy=0;exitPerimeter=0;" edge="1" parent="1" source="8bmbix7VtnqFgUIKCFhv-7" target="8bmbix7VtnqFgUIKCFhv-2">
          <mxGeometry relative="1" as="geometry" />
        </mxCell>
        <mxCell id="8bmbix7VtnqFgUIKCFhv-7" value="&lt;font color=&quot;#000000&quot; size=&quot;1&quot;&gt;&lt;b style=&quot;font-size: 13px&quot;&gt;Salesforce&lt;/b&gt;&lt;/font&gt;" style="html=1;strokeColor=none;fillColor=#0079D6;labelPosition=center;verticalLabelPosition=middle;verticalAlign=top;align=center;fontSize=12;outlineConnect=0;spacingTop=-6;fontColor=#FFFFFF;shape=mxgraph.sitemap.cloud;" vertex="1" parent="1">
          <mxGeometry x="45" y="143.00000000000003" width="80" height="50" as="geometry" />
        </mxCell>
        <mxCell id="8bmbix7VtnqFgUIKCFhv-71" value="" style="edgeStyle=orthogonalEdgeStyle;rounded=0;orthogonalLoop=1;jettySize=auto;html=1;" edge="1" parent="1" source="8bmbix7VtnqFgUIKCFhv-12" target="8bmbix7VtnqFgUIKCFhv-2">
          <mxGeometry relative="1" as="geometry">
            <mxPoint x="319" y="283" as="targetPoint" />
          </mxGeometry>
        </mxCell>
        <mxCell id="8bmbix7VtnqFgUIKCFhv-12" value="" style="verticalLabelPosition=bottom;html=1;verticalAlign=top;strokeWidth=1;align=center;outlineConnect=0;dashed=0;outlineConnect=0;shape=mxgraph.aws3d.elasticLoadBalancing;fillColor=#ECECEC;strokeColor=#5E5E5E;aspect=fixed;" vertex="1" parent="1">
          <mxGeometry x="205" y="232.03999999999996" width="50" height="47.92" as="geometry" />
        </mxCell>
        <mxCell id="8bmbix7VtnqFgUIKCFhv-17" value="EC2 Puppeteer Agents" style="outlineConnect=0;fontColor=#232F3E;gradientColor=none;strokeColor=#ffffff;fillColor=#232F3E;dashed=0;verticalLabelPosition=middle;verticalAlign=bottom;align=center;html=1;whiteSpace=wrap;fontSize=10;fontStyle=1;spacing=3;shape=mxgraph.aws4.productIcon;prIcon=mxgraph.aws4.ec2;" vertex="1" parent="1">
          <mxGeometry x="260" y="470" width="50" height="90" as="geometry" />
        </mxCell>
        <mxCell id="8bmbix7VtnqFgUIKCFhv-20" value="" style="endArrow=classic;startArrow=classic;html=1;" edge="1" parent="1" source="8bmbix7VtnqFgUIKCFhv-2" target="8bmbix7VtnqFgUIKCFhv-4">
          <mxGeometry width="50" height="50" relative="1" as="geometry">
            <mxPoint x="455" y="260" as="sourcePoint" />
            <mxPoint x="535" y="260" as="targetPoint" />
          </mxGeometry>
        </mxCell>
        <mxCell id="8bmbix7VtnqFgUIKCFhv-21" value="" style="endArrow=classic;startArrow=classic;html=1;" edge="1" parent="1" source="8bmbix7VtnqFgUIKCFhv-2" target="8bmbix7VtnqFgUIKCFhv-5">
          <mxGeometry width="50" height="50" relative="1" as="geometry">
            <mxPoint x="465" y="270" as="sourcePoint" />
            <mxPoint x="600" y="258.08823529411757" as="targetPoint" />
            <Array as="points" />
          </mxGeometry>
        </mxCell>
        <mxCell id="8bmbix7VtnqFgUIKCFhv-23" value="EC2 Puppeteer Agents" style="outlineConnect=0;fontColor=#232F3E;gradientColor=none;strokeColor=#ffffff;fillColor=#232F3E;dashed=0;verticalLabelPosition=middle;verticalAlign=bottom;align=center;html=1;whiteSpace=wrap;fontSize=10;fontStyle=1;spacing=3;shape=mxgraph.aws4.productIcon;prIcon=mxgraph.aws4.ec2;" vertex="1" parent="1">
          <mxGeometry x="382.5" y="470" width="50" height="90" as="geometry" />
        </mxCell>
        <mxCell id="8bmbix7VtnqFgUIKCFhv-24" value="EC2 Puppeteer Agents" style="outlineConnect=0;fontColor=#232F3E;gradientColor=none;strokeColor=#ffffff;fillColor=#232F3E;dashed=0;verticalLabelPosition=middle;verticalAlign=bottom;align=center;html=1;whiteSpace=wrap;fontSize=10;fontStyle=1;spacing=3;shape=mxgraph.aws4.productIcon;prIcon=mxgraph.aws4.ec2;" vertex="1" parent="1">
          <mxGeometry x="510" y="470" width="50" height="90" as="geometry" />
        </mxCell>
        <mxCell id="8bmbix7VtnqFgUIKCFhv-29" value="" style="endArrow=classic;startArrow=classic;html=1;" edge="1" parent="1" target="8bmbix7VtnqFgUIKCFhv-23">
          <mxGeometry width="50" height="50" relative="1" as="geometry">
            <mxPoint x="408" y="358" as="sourcePoint" />
            <mxPoint x="450" y="360" as="targetPoint" />
            <Array as="points">
              <mxPoint x="408" y="390" />
            </Array>
          </mxGeometry>
        </mxCell>
        <mxCell id="8bmbix7VtnqFgUIKCFhv-32" value="" style="endArrow=classic;startArrow=classic;html=1;" edge="1" parent="1" source="8bmbix7VtnqFgUIKCFhv-17" target="8bmbix7VtnqFgUIKCFhv-2">
          <mxGeometry width="50" height="50" relative="1" as="geometry">
            <mxPoint x="400" y="400" as="sourcePoint" />
            <mxPoint x="450" y="350" as="targetPoint" />
            <Array as="points" />
          </mxGeometry>
        </mxCell>
        <mxCell id="8bmbix7VtnqFgUIKCFhv-33" value="" style="endArrow=classic;startArrow=classic;html=1;" edge="1" parent="1" source="8bmbix7VtnqFgUIKCFhv-24" target="8bmbix7VtnqFgUIKCFhv-2">
          <mxGeometry width="50" height="50" relative="1" as="geometry">
            <mxPoint x="377.33" y="472.57142857142867" as="sourcePoint" />
            <mxPoint x="454.9966666666665" y="330" as="targetPoint" />
            <Array as="points" />
          </mxGeometry>
        </mxCell>
        <mxCell id="8bmbix7VtnqFgUIKCFhv-34" value="" style="shape=image;html=1;verticalAlign=top;verticalLabelPosition=bottom;labelBackgroundColor=#ffffff;imageAspect=0;aspect=fixed;image=https://cdn4.iconfinder.com/data/icons/logos-brands-5/24/nginx-128.png" vertex="1" parent="1">
          <mxGeometry x="252" y="610" width="58" height="58" as="geometry" />
        </mxCell>
        <mxCell id="8bmbix7VtnqFgUIKCFhv-36" value="" style="shape=image;html=1;verticalAlign=top;verticalLabelPosition=bottom;labelBackgroundColor=#ffffff;imageAspect=0;aspect=fixed;image=https://cdn4.iconfinder.com/data/icons/logos-brands-5/24/nginx-128.png" vertex="1" parent="1">
          <mxGeometry x="382.5" y="610" width="58" height="58" as="geometry" />
        </mxCell>
        <mxCell id="8bmbix7VtnqFgUIKCFhv-37" value="" style="shape=image;html=1;verticalAlign=top;verticalLabelPosition=bottom;labelBackgroundColor=#ffffff;imageAspect=0;aspect=fixed;image=https://cdn4.iconfinder.com/data/icons/logos-brands-5/24/nginx-128.png" vertex="1" parent="1">
          <mxGeometry x="520" y="610" width="58" height="58" as="geometry" />
        </mxCell>
        <mxCell id="8bmbix7VtnqFgUIKCFhv-44" value="" style="endArrow=classic;startArrow=classic;html=1;" edge="1" parent="1">
          <mxGeometry width="50" height="50" relative="1" as="geometry">
            <mxPoint x="280" y="610" as="sourcePoint" />
            <mxPoint x="280" y="560" as="targetPoint" />
          </mxGeometry>
        </mxCell>
        <mxCell id="8bmbix7VtnqFgUIKCFhv-45" value="" style="endArrow=classic;startArrow=classic;html=1;" edge="1" parent="1">
          <mxGeometry width="50" height="50" relative="1" as="geometry">
            <mxPoint x="411" y="610" as="sourcePoint" />
            <mxPoint x="411" y="560" as="targetPoint" />
          </mxGeometry>
        </mxCell>
        <mxCell id="8bmbix7VtnqFgUIKCFhv-46" value="" style="endArrow=classic;startArrow=classic;html=1;" edge="1" parent="1">
          <mxGeometry width="50" height="50" relative="1" as="geometry">
            <mxPoint x="548.5" y="610" as="sourcePoint" />
            <mxPoint x="548.5" y="560" as="targetPoint" />
          </mxGeometry>
        </mxCell>
        <mxCell id="8bmbix7VtnqFgUIKCFhv-47" value="" style="outlineConnect=0;dashed=0;verticalLabelPosition=bottom;verticalAlign=top;align=center;html=1;shape=mxgraph.aws3.cloudwatch;fillColor=#759C3E;gradientColor=none;" vertex="1" parent="1">
          <mxGeometry x="404" y="104" width="83" height="72" as="geometry" />
        </mxCell>
        <mxCell id="8bmbix7VtnqFgUIKCFhv-49" value="Cloudwatch Logs" style="text;html=1;strokeColor=none;fillColor=none;align=center;verticalAlign=middle;whiteSpace=wrap;rounded=0;" vertex="1" parent="1">
          <mxGeometry x="354" y="123" width="40" height="20" as="geometry" />
        </mxCell>
        <mxCell id="8bmbix7VtnqFgUIKCFhv-53" value="" style="endArrow=none;dashed=1;html=1;dashPattern=1 3;strokeWidth=2;" edge="1" parent="1" source="8bmbix7VtnqFgUIKCFhv-6" target="8bmbix7VtnqFgUIKCFhv-17">
          <mxGeometry width="50" height="50" relative="1" as="geometry">
            <mxPoint x="400" y="390" as="sourcePoint" />
            <mxPoint x="450" y="340" as="targetPoint" />
            <Array as="points">
              <mxPoint x="245" y="407" />
            </Array>
          </mxGeometry>
        </mxCell>
        <mxCell id="8bmbix7VtnqFgUIKCFhv-54" value="" style="endArrow=none;dashed=1;html=1;dashPattern=1 3;strokeWidth=2;" edge="1" parent="1" source="8bmbix7VtnqFgUIKCFhv-6" target="8bmbix7VtnqFgUIKCFhv-23">
          <mxGeometry width="50" height="50" relative="1" as="geometry">
            <mxPoint x="315" y="400" as="sourcePoint" />
            <mxPoint x="315" y="440" as="targetPoint" />
          </mxGeometry>
        </mxCell>
        <mxCell id="8bmbix7VtnqFgUIKCFhv-55" value="" style="endArrow=none;dashed=1;html=1;dashPattern=1 3;strokeWidth=2;" edge="1" parent="1" source="8bmbix7VtnqFgUIKCFhv-6" target="8bmbix7VtnqFgUIKCFhv-24">
          <mxGeometry width="50" height="50" relative="1" as="geometry">
            <mxPoint x="315" y="380" as="sourcePoint" />
            <mxPoint x="315" y="420" as="targetPoint" />
          </mxGeometry>
        </mxCell>
        <mxCell id="8bmbix7VtnqFgUIKCFhv-56" value="" style="outlineConnect=0;dashed=0;verticalLabelPosition=bottom;verticalAlign=top;align=center;html=1;shape=mxgraph.aws3.lambda_function;fillColor=#F58534;gradientColor=none;" vertex="1" parent="1">
          <mxGeometry x="660" y="490" width="60" height="61" as="geometry" />
        </mxCell>
        <mxCell id="8bmbix7VtnqFgUIKCFhv-57" value="Lambda based Puppeteer cluster?" style="text;html=1;strokeColor=none;fillColor=none;align=center;verticalAlign=middle;whiteSpace=wrap;rounded=0;" vertex="1" parent="1">
          <mxGeometry x="670" y="450" width="40" height="20" as="geometry" />
        </mxCell>
        <mxCell id="8bmbix7VtnqFgUIKCFhv-59" value="Amazon Elasticsearch Service" style="outlineConnect=0;fontColor=#232F3E;gradientColor=none;strokeColor=#ffffff;fillColor=#232F3E;dashed=0;verticalLabelPosition=middle;verticalAlign=bottom;align=center;html=1;whiteSpace=wrap;fontSize=10;fontStyle=1;spacing=3;shape=mxgraph.aws4.productIcon;prIcon=mxgraph.aws4.elasticsearch_service;" vertex="1" parent="1">
          <mxGeometry x="585" y="104" width="74" height="102" as="geometry" />
        </mxCell>
        <mxCell id="8bmbix7VtnqFgUIKCFhv-70" style="edgeStyle=orthogonalEdgeStyle;rounded=0;orthogonalLoop=1;jettySize=auto;html=1;exitX=1;exitY=0.5;exitDx=0;exitDy=0;exitPerimeter=0;" edge="1" parent="1" source="8bmbix7VtnqFgUIKCFhv-63" target="8bmbix7VtnqFgUIKCFhv-12">
          <mxGeometry relative="1" as="geometry" />
        </mxCell>
        <mxCell id="8bmbix7VtnqFgUIKCFhv-63" value="" style="verticalLabelPosition=bottom;html=1;fillColor=#A153A0;strokeColor=#ffffff;verticalAlign=top;align=center;points=[[0,0.5,0],[0.125,0.25,0],[0.25,0,0],[0.5,0,0],[0.75,0,0],[0.875,0.25,0],[1,0.5,0],[0.875,0.75,0],[0.75,1,0],[0.5,1,0],[0.125,0.75,0]];pointerEvents=1;shape=mxgraph.cisco_safe.compositeIcon;bgIcon=ellipse;resIcon=mxgraph.cisco_safe.design.users;" vertex="1" parent="1">
          <mxGeometry x="60" y="231" width="50" height="50" as="geometry" />
        </mxCell>
        <mxCell id="8bmbix7VtnqFgUIKCFhv-66" value="" style="endArrow=classic;html=1;entryX=0.5;entryY=1;entryDx=0;entryDy=0;entryPerimeter=0;" edge="1" parent="1" source="8bmbix7VtnqFgUIKCFhv-2" target="8bmbix7VtnqFgUIKCFhv-47">
          <mxGeometry width="50" height="50" relative="1" as="geometry">
            <mxPoint x="328" y="216" as="sourcePoint" />
            <mxPoint x="378" y="166" as="targetPoint" />
          </mxGeometry>
        </mxCell>
        <mxCell id="8bmbix7VtnqFgUIKCFhv-72" value="" style="endArrow=classic;html=1;" edge="1" parent="1" source="8bmbix7VtnqFgUIKCFhv-2" target="8bmbix7VtnqFgUIKCFhv-6">
          <mxGeometry width="50" height="50" relative="1" as="geometry">
            <mxPoint x="147" y="368" as="sourcePoint" />
            <mxPoint x="197" y="318" as="targetPoint" />
          </mxGeometry>
        </mxCell>
        <mxCell id="8bmbix7VtnqFgUIKCFhv-73" value="" style="endArrow=classic;html=1;" edge="1" parent="1" source="8bmbix7VtnqFgUIKCFhv-2">
          <mxGeometry width="50" height="50" relative="1" as="geometry">
            <mxPoint x="535" y="195" as="sourcePoint" />
            <mxPoint x="585" y="145" as="targetPoint" />
          </mxGeometry>
        </mxCell>
      </root>
    </mxGraphModel>
  </diagram>
</mxfile>
